<svg width="1024" height="1096" viewBox="0 0 1024 1096" fill="none" xmlns="http://www.w3.org/2000/svg">
<mask id="mask0" mask-type="alpha" maskUnits="userSpaceOnUse" x="-271" y="-250" width="1541" height="1346">
<ellipse cx="499.5" cy="423" rx="770.5" ry="673" fill="#C4C4C4"/>
</mask>
<g mask="url(#mask0)">
<rect x="-536" y="-51" width="1922" height="1483" fill="url(#paint0_linear)"/>
<path d="M219 451.042C219 180.392 61.304 -39.2657 -133 -39.2658L-133 451.042L219 451.042Z" fill="#83C1F7" fill-opacity="0.11"/>
<path d="M1187 704C834.824 704 549 1102.12 549 1592.67L1187 1592.67L1187 704Z" fill="#36BDFF" fill-opacity="0.5"/>
<path d="M139.998 846.865C-11.802 846.865 -135.002 1018.47 -135.002 1229.91L139.998 1229.91L139.998 846.865Z" fill="#88BEEC" fill-opacity="0.3"/>
<path d="M1026 195L1026 -35L797.122 -35L1026 195Z" fill="#36BDFF"/>
</g>
<defs>
<linearGradient id="paint0_linear" x1="1386" y1="-86.3096" x2="-846.678" y2="979.357" gradientUnits="userSpaceOnUse">
<stop stop-color="#35D3FF"/>
<stop offset="1" stop-color="#450B89"/>
</linearGradient>
</defs>
</svg>
